# xmcd
#
# Track frame offsets:
#	150
#	19090
#	37897
#	52797
#	85480
#	96922
#	113450
#	132077
#	166677
#	181740
#	196355
#	211155
#
# Disc length: 3180 seconds
#
# Revision: 0
# Processed by: cddbd v1.5.2PL0 Copyright (c) Steve Scherf et al.
# Submitted via: audiograbber 1.83.01
#
DISCID=890c6a0c
DTITLE=billy tircuit (US) - billy tircuit
DYEAR=2016
DGENRE=blues
TTITLE0=New Oleans Shuffle 
TTITLE1=Cherry Red 
TTITLE2=Everyday I Have The Blues 
TTITLE3=Juicy Head Baby 
TTITLE4=Strollin' With Mr. G 
TTITLE5=Rock and Roll Fever
TTITLE6=Shake, Rattle and Roll
TTITLE7=Jelly, Jelly
TTITLE8=Good Rockin' Tonite
TTITLE9=Flip, Flop and Fly
TTITLE10=Billy's Shuffle
TTITLE11=Here Comes The Blues
EXTD=
EXTT0=
EXTT1=
EXTT2=
EXTT3=
EXTT4=
EXTT5=
EXTT6=
EXTT7=
EXTT8=
EXTT9=
EXTT10=
EXTT11=
PLAYORDER=
